<svg width="200" height="200" viewBox="0 0 200 200" xmlns="http://www.w3.org/2000/svg">
  <rect width="200" height="200" rx="24" fill="#0a0a0a"/>
  <rect x="2" y="2" width="196" height="196" rx="22" fill="none" stroke="#EA580C" stroke-width="1.5" stroke-dasharray="4 3"/>

  <g transform="translate(100, 100)">
    <polygon points="-42,-62 -42,62 8,62 38,42 52,14 52,-14 38,-42 8,-62" fill="#9a3a08"/>
    <polygon points="-42,-62 -42,-48 8,-48 30,-32 42,-12 42,12 30,32 8,48 -42,48 -42,62 8,62 38,42 52,14 52,-14 38,-42 8,-62" fill="#EA580C"/>
    <polygon points="-42,-62 -28,-62 -28,62 -42,62" fill="#EA580C"/>
    <polygon points="-28,-62 8,-62 38,-42 42,-24 26,-40 8,-48 -28,-48" fill="#c44a0a"/>
    <polygon points="-28,62 8,62 38,42 42,24 26,40 8,48 -28,48" fill="#c44a0a"/>
    <polygon points="-42,-62 -42,-54 -28,-54 -28,-62" fill="#ff7a2f"/>
    <polygon points="-42,62 -42,54 -28,54 -28,62" fill="#ff7a2f"/>
    <polygon points="38,-42 52,-14 48,-14 34,-38" fill="#ff7a2f"/>
  </g>

  <line x1="2" y1="100" x2="18" y2="100" stroke="#EA580C" stroke-width="0.8" stroke-dasharray="3 2"/>
  <line x1="182" y1="100" x2="198" y2="100" stroke="#EA580C" stroke-width="0.8" stroke-dasharray="3 2"/>
  <line x1="100" y1="2" x2="100" y2="18" stroke="#EA580C" stroke-width="0.8" stroke-dasharray="3 2"/>
  <line x1="100" y1="182" x2="100" y2="198" stroke="#EA580C" stroke-width="0.8" stroke-dasharray="3 2"/>
</svg>
